<?xml version="1.0" standalone="no"?><!DOCTYPE svg PUBLIC "-//W3C//DTD SVG 1.1//EN" "http://www.w3.org/Graphics/SVG/1.1/DTD/svg11.dtd"><svg t="1726048103914" class="icon" viewBox="0 0 1024 1024" version="1.1" xmlns="http://www.w3.org/2000/svg" p-id="5906" xmlns:xlink="http://www.w3.org/1999/xlink" width="81" height="81"><path d="M1004.032 551.537778l-356.124444 456.192a54.044444 54.044444 0 0 1-74.979556 0 50.631111 50.631111 0 0 1 0-72.931556l264.305778-366.933333H56.832A56.32 56.32 0 0 1 0.056889 512a56.32 56.32 0 0 1 56.775111-55.864889h782.051556l-265.955556-368.583111a50.631111 50.631111 0 0 1 0-72.874667 54.044444 54.044444 0 0 1 74.979556 0l356.124444 456.192c11.377778 11.036444 21.048889 26.624 19.911111 41.073778 1.137778 14.449778-8.533333 28.501333-19.911111 39.594667z" fill="#ffffff" p-id="5907"></path></svg>