<?xml version="1.0" encoding="utf-8"?>
<!-- Generator: Adobe Illustrator 27.0.0, SVG Export Plug-In . SVG Version: 6.00 Build 0)  -->
<svg version="1.1" id="图层_1" xmlns="http://www.w3.org/2000/svg" xmlns:xlink="http://www.w3.org/1999/xlink" x="0px" y="0px"
	 viewBox="0 0 81 81" style="enable-background:new 0 0 81 81;" xml:space="preserve">
<style type="text/css">
	.st0{fill:#6893DF;}
</style>
<g>
	<path class="st0" d="M26.1,38.4h28.8c2.7,0,4,1.3,4,4v13.2c0,2.7-1.3,4-4,4H26.1c-2.7,0-4-1.3-4-4V42.4
		C22.1,39.7,23.4,38.4,26.1,38.4z"/>
	<path class="st0" d="M67.7,0H13.3C6,0,0,5.9,0,13.3v54.5C0,75,6,81,13.3,81h54.5C75.1,81,81,75,81,67.7V13.3C81,5.9,75.1,0,67.7,0z
		 M65.1,55.6c0,5.6-4.6,10.2-10.2,10.2H26.1c-5.6,0-10.2-4.6-10.2-10.2V42.4c0-5.2,4-9.6,9.2-10.1v-0.6c0.2-8.5,7.2-15.3,15.7-15.1
		c8.3,0.2,15,6.8,15.1,15.1v0.6c5.2,0.5,9.1,4.9,9.2,10.1V55.6z"/>
	<path class="st0" d="M49.8,32.2v-0.6c-0.1-5.1-4.4-9.2-9.5-9.1c-5,0.1-8.9,4.1-9.1,9.1v0.6H49.8z"/>
</g>
</svg>
