<?xml version="1.0" standalone="no"?><!DOCTYPE svg PUBLIC "-//W3C//DTD SVG 1.1//EN" "http://www.w3.org/Graphics/SVG/1.1/DTD/svg11.dtd"><svg t="1726584538712" class="icon" viewBox="0 0 1024 1024" version="1.1" xmlns="http://www.w3.org/2000/svg" p-id="11330" xmlns:xlink="http://www.w3.org/1999/xlink" width="81" height="81"><path d="M554.84811 298.412549h-85.226521a21.366313 21.366313 0 0 1 0-42.732626h85.226521a21.366313 21.366313 0 0 1 0 42.732626z" fill="#F6BB42" p-id="11331"></path><path d="M810.527675 724.664522A511.59786 511.59786 0 0 1 331.993886 33.064429 511.35913 511.35913 0 1 0 990.768638 692.316641a509.449292 509.449292 0 0 1-180.240963 32.347881z" fill="#FFCE54" p-id="11332"></path><path d="M554.84811 980.344087a511.35913 511.35913 0 0 1-381.967604-850.832838 511.239765 511.239765 0 1 0 721.441312 721.799407A509.329927 509.329927 0 0 1 554.84811 980.344087z" fill="#F6BB42" p-id="11333"></path><path d="M767.914414 277.284966a21.366313 21.366313 0 1 1-21.366313-21.366313 21.366313 21.366313 0 0 1 21.366313 21.366313z" fill="#4A89DC" p-id="11334"></path><path d="M661.440945 490.35127a21.366313 21.366313 0 1 1-21.366313-21.366313 21.366313 21.366313 0 0 1 21.366313 21.366313z" fill="#48CFAD" p-id="11335"></path><path d="M1023.593979 234.31361a21.366313 21.366313 0 1 1-21.366313-21.246948 21.366313 21.366313 0 0 1 21.366313 21.246948z" fill="#ED5564" p-id="11336"></path><path d="M640.074632 21.247306A21.366313 21.366313 0 1 1 618.827684 0.000358a21.366313 21.366313 0 0 1 21.246948 21.246948z" fill="#AC92EB" p-id="11337"></path><path d="M512.234849 192.058444a21.366313 21.366313 0 0 0-21.246948 21.366313v127.720418a21.366313 21.366313 0 1 0 42.613261 0v-127.720418a21.366313 21.366313 0 0 0-21.366313-21.366313z" fill="#FFCE54" p-id="11338"></path><path d="M874.387884 426.371696a21.366313 21.366313 0 0 0-21.246948 21.366313v127.839783a21.366313 21.366313 0 0 0 42.613261 0V447.738009a21.366313 21.366313 0 0 0-21.366313-21.366313z" fill="#F6BB42" p-id="11339"></path><path d="M917.001145 532.964531H831.774623a21.366313 21.366313 0 0 1 0-42.613261h85.226522a21.366313 21.366313 0 1 1 0 42.613261z" fill="#FFCE54" p-id="11340"></path></svg>