<?xml version="1.0" standalone="no"?><!DOCTYPE svg PUBLIC "-//W3C//DTD SVG 1.1//EN" "http://www.w3.org/Graphics/SVG/1.1/DTD/svg11.dtd"><svg t="1726198079677" class="icon" viewBox="0 0 1024 1024" version="1.1" xmlns="http://www.w3.org/2000/svg" p-id="17757" xmlns:xlink="http://www.w3.org/1999/xlink" width="81" height="81"><path d="M512.1 511.4m-429.9 0a429.9 429.9 0 1 0 859.8 0 429.9 429.9 0 1 0-859.8 0Z" fill="#D6F3FA" p-id="17758"></path><path d="M141.2 429.9c31.6-143.6 146.3-258.2 290-289.6 13-2.8 25.8 5.7 27.8 18.9 1.8 11.7-5.7 23-17.3 25.5-127 27.5-228.5 128.8-256.1 255.8-2.5 11.6-13.8 19.1-25.5 17.3-13.3-2.1-21.8-14.9-18.9-27.9zM441.6 838C314.5 810.6 213 709.2 185.5 582.2c-2.5-11.6-13.8-19.1-25.5-17.3-13.2 2-21.7 14.8-18.9 27.8 31.5 143.7 146.3 258.3 290 289.8 13 2.8 25.8-5.7 27.8-18.9 1.8-11.8-5.7-23-17.3-25.6z m422.7-273.7c-11.7-1.7-23 5.8-25.5 17.3-27.2 126.4-127.9 227.8-254.1 256-11.6 2.6-19 13.9-17.2 25.6 2.1 13.2 14.9 21.6 27.9 18.7C738.2 849.7 852 735 883.2 592.1c2.9-13.1-5.7-25.9-18.9-27.8zM584.7 185.1C710.9 213.3 811.5 314.6 838.8 441c2.5 11.6 13.8 19.1 25.5 17.3 13.2-2 21.7-14.8 18.9-27.8C852 287.6 738.1 173 595.5 140.8c-13-2.9-25.9 5.5-27.9 18.7-1.9 11.7 5.6 23.1 17.1 25.6zM438.1 511.4c0 40.9 33.1 74 74 74s74-33.1 74-74-33.1-74-74-74-74 33.1-74 74z m74-152.4c84 0 152.4 68.3 152.4 152.4s-68.3 152.4-152.4 152.4-152.4-68.3-152.4-152.4S428.1 359 512.1 359z m0 17.4c-74.4 0-134.9 60.5-134.9 134.9s60.5 134.9 134.9 134.9S647 585.7 647 511.3s-60.5-134.9-134.9-134.9z m0-113.5c14.4 0 26.1-11.8 26.1-26.1V89.5c0-14.4-11.8-26.1-26.1-26.1-14.4 0-26.1 11.8-26.1 26.1v147.3c0 14.3 11.7 26.1 26.1 26.1z m0 496.9c-14.4 0-26.1 11.8-26.1 26.1v147.3c0 14.4 11.8 26.1 26.1 26.1 14.4 0 26.1-11.8 26.1-26.1V786c0-14.4-11.7-26.2-26.1-26.2zM263.6 511.4c0-14.4-11.8-26.1-26.1-26.1H90.2c-14.4 0-26.1 11.8-26.1 26.1s11.8 26.1 26.1 26.1h147.3c14.4 0 26.1-11.8 26.1-26.1zM934 485.2H786.7c-14.4 0-26.1 11.8-26.1 26.1s11.8 26.1 26.1 26.1H934c14.4 0 26.1-11.8 26.1-26.1s-11.8-26.1-26.1-26.1z" fill="#18BAE5" p-id="17759"></path></svg>