<?xml version="1.0" standalone="no"?><!DOCTYPE svg PUBLIC "-//W3C//DTD SVG 1.1//EN" "http://www.w3.org/Graphics/SVG/1.1/DTD/svg11.dtd"><svg t="1726046697983" class="icon" viewBox="0 0 1024 1024" version="1.1" xmlns="http://www.w3.org/2000/svg" p-id="42953" xmlns:xlink="http://www.w3.org/1999/xlink" width="81" height="81"><path d="M1024 512c0 282.72-229.28 512-512 512S0 794.72 0 512 229.28 0 512 0s512 229.28 512 512" fill="#5A89FF" p-id="42954"></path><path d="M598.08 512c0-7.04 2.72-13.76 7.84-18.72 4.96-4.96 11.68-7.84 18.72-7.84h201.28l-60.8-60.8-3.04-3.68a26.576 26.576 0 0 1 40.64-33.92l106.4 106.4c0.8 0.8 1.44 1.6 2.08 2.56l0.48 0.64c0.64 0.96 1.28 1.76 1.76 2.72l0.48 1.12 0.48 1.12c1.28 3.2 2.08 6.56 1.92 10.08l-0.16-2.4V513.12c-0.32 4.64-1.76 9.12-4.16 13.12l-1.6 2.08-1.92 2.4-106.08 106.08-3.52 3.2c-10.56 7.2-24.8 5.92-33.76-3.04l-3.04-3.68c-7.2-10.56-5.92-24.8 3.04-33.76l60.64-60.8H624.64l-4.8-0.48A27.04 27.04 0 0 1 598.08 512zM512 598.24c12.8 0 23.84 9.12 26.08 21.76l0.48 4.8v201.12l60.8-60.64c9.12-9.12 23.36-10.4 33.76-3.04l3.68 3.04c8.96 9.12 10.24 23.2 3.04 33.76l-3.04 3.68-106.08 106.08-2.4 2.08-2.08 1.6c-4.32 2.72-9.28 4.16-14.24 4.16h-2.24 1.12l-2.24-0.16 0.96 0.16h-0.48c-1.76-0.16-3.36-0.48-4.96-0.96l-2.08-0.8c-1.76-0.8-3.52-1.6-4.96-2.72l-0.8-0.48a17.12 17.12 0 0 1-2.56-2.24l-106.4-106.4a26.576 26.576 0 0 1 33.92-40.64l3.68 3.04 60.8 60.8V624.96A26.08 26.08 0 0 1 512 598.24zM221.44 387.2l3.68-3.2c10.56-7.36 24.8-5.92 33.76 3.04l3.04 3.68c7.2 10.56 5.92 24.8-3.04 33.76l-60.64 60.8h201.12l4.8 0.48c13.44 2.56 22.72 14.88 21.44 28.48-1.28 13.6-12.64 24-26.24 24.16l-201.28 0.16 60.8 60.8 3.04 3.68a26.576 26.576 0 0 1-40.64 33.92l-106.4-106.4c-0.8-0.8-1.6-1.76-2.24-2.56l-0.48-0.64c-0.64-0.96-1.28-1.76-1.76-2.88-1.92-3.84-3.04-8-3.04-12.32l0.16 2.4v0.48l-0.16-1.76v1.12-3.36c0.16-3.04 0.8-6.08 2.08-8.96l0.96-2.08c1.28-2.4 2.88-4.64 4.8-6.56l-1.76 1.92 0.32-0.32 0.64-0.8 107.04-107.04zM494.24 114.4l0.8-0.64 0.16-0.16c1.44-1.12 3.04-2.08 4.64-3.04l2.08-0.96 2.08-0.8 2.56-0.64c1.76-0.48 3.68-0.64 5.6-0.64h1.28l0.96 0.16h0.8l2.88 0.48c3.36 0.8 6.4 2.24 9.12 4.16l0.64 0.48c0.96 0.64 1.76 1.44 2.56 2.24l106.56 106.56c9.6 9.76 10.24 25.12 1.44 35.52-8.8 10.4-24 12.64-35.2 4.96l-3.68-3.04-60.8-60.8v201.12c0 13.76-10.4 25.28-24.16 26.4-13.76 1.28-26.08-8.16-28.48-21.76l-0.48-4.8V198.08l-60.8 60.64c-9.12 9.12-23.36 10.4-33.92 3.04l-3.68-3.04c-9.12-9.12-10.4-23.36-3.04-33.76l3.04-3.68 107.04-106.88z" fill="#FFFFFF" p-id="42955"></path></svg>