<?xml version="1.0" standalone="no"?><!DOCTYPE svg PUBLIC "-//W3C//DTD SVG 1.1//EN" "http://www.w3.org/Graphics/SVG/1.1/DTD/svg11.dtd"><svg t="1726045265796" class="icon" viewBox="0 0 1024 1024" version="1.1" xmlns="http://www.w3.org/2000/svg" p-id="27132" xmlns:xlink="http://www.w3.org/1999/xlink" width="81" height="81"><path d="M194.56 173.056m139.4688 0l430.2336 0q139.4688 0 139.4688 139.4688l0 445.5936q0 139.4688-139.4688 139.4688l-430.2336 0q-139.4688 0-139.4688-139.4688l0-445.5936q0-139.4688 139.4688-139.4688Z" fill="#8CECFF" p-id="27133"></path><path d="M777.3696 713.0112l-92.16-93.2864-0.3072-0.256a188.672 188.672 0 1 0-50.5856 50.7904l92.16 93.1328a35.84 35.84 0 1 0 51.2-50.3808z" fill="#FFDE73" p-id="27134"></path><path d="M734.6688 92.7232H297.3184a192.4096 192.4096 0 0 0-192.1536 192.1536v443.5968a192.4096 192.4096 0 0 0 192.1536 192.1536h437.3504A192.4096 192.4096 0 0 0 926.72 728.4736V284.8768a192.4096 192.4096 0 0 0-192.0512-192.1536zM880.64 728.4736a146.2272 146.2272 0 0 1-146.0736 146.0736h-437.248a146.2272 146.2272 0 0 1-146.0736-146.0736V284.8768a146.2272 146.2272 0 0 1 146.0736-146.0736h437.3504A146.2272 146.2272 0 0 1 880.64 284.8768z" fill="#474747" p-id="27135"></path><path d="M655.7184 613.376a4.1472 4.1472 0 0 1-0.512-0.4608 197.8368 197.8368 0 1 0-32.6144 32.4608l0.3072 0.3584 92.16 93.2864a23.04 23.04 0 0 0 32.768-32.3584z m-155.0848 28.2624a151.3984 151.3984 0 1 1 151.3984-151.3984 151.552 151.552 0 0 1-151.3984 151.3984z" fill="#474747" p-id="27136"></path></svg>