<?xml version="1.0" standalone="no"?><!DOCTYPE svg PUBLIC "-//W3C//DTD SVG 1.1//EN" "http://www.w3.org/Graphics/SVG/1.1/DTD/svg11.dtd"><svg t="1726045641097" class="icon" viewBox="0 0 1024 1024" version="1.1" xmlns="http://www.w3.org/2000/svg" p-id="30174" xmlns:xlink="http://www.w3.org/1999/xlink" width="81" height="81"><path d="M443.83 908.912c21.615 0 32.265-7.876 35.84-17.082 33.996-87.822 95.837-525.508 120.44-573.152 23.404-45.335 78.271-43.818 164.595 4.543a9.31 9.31 0 0 0 13.153-4.562l43.474-104.95a4.971 4.971 0 0 0-2.365-6.349c-73.886-37.153-159.65-58.415-251.112-58.415-58.182 0-114.065 8.602-166.037 24.428-59.644 18.152-99.933 48.407-127.135 87.095-2.448 3.491-3.872 12.903 5.79 12.903 25.787 0 97.476-12.903 123.393-17.064 26-4.17 70.032-11.785 79.527 21.579 12.493 43.948-58.647 312.18-81.575 381.56-22.985 69.502-41.9 141.331-51.182 180.597-2.448 10.333 0 32.703 12.046 42.636 11.776 9.681 50.409 26.233 81.148 26.233z" fill="#FFAE00" p-id="30175"></path><path d="M781.898 175.523l68.553 29.1-60.156 141.703-68.552-29.09z" fill="#D8D8D8" p-id="30176"></path><path d="M443.83 908.912c21.615 0 32.265-7.876 35.84-17.082 15.304-39.564 44.301-182.542 86.974-428.945l-104.187-32.377c-31.874 126.762-52.094 203.078-60.64 228.939-22.984 69.501-41.9 141.33-51.18 180.596-2.45 10.333 0 32.703 12.045 42.636 11.776 9.681 50.409 26.233 81.148 26.233z" fill="#42434D" p-id="30177"></path><path d="M83.782 584.183v-71.308L239.82 399.518l43.771 60.249-120.888 87.822 126.008 84.992-41.64 61.747-163.29-110.145z m856.567-74.529v71.308l-156.03 113.366-43.78-60.249 120.887-87.83-126.008-84.993 41.65-61.738 163.28 110.136z" fill="#D8D8D8" p-id="30178"></path></svg>